<mxfile host="65bd71144e">
    <diagram id="ShFn8PIkIMu-xpil3rUc" name="Level 1">
        <mxGraphModel dx="1284" dy="478" grid="1" gridSize="10" guides="1" tooltips="1" connect="1" arrows="1" fold="1" page="1" pageScale="1" pageWidth="583" pageHeight="827" math="0" shadow="0">
            <root>
                <mxCell id="0"/>
                <mxCell id="1" parent="0"/>
                <mxCell id="4vlzXtDcmgQsKmsYzqEM-1" value="KTM&lt;br&gt;Warga" style="ellipse;whiteSpace=wrap;html=1;aspect=fixed;strokeWidth=2;" parent="1" vertex="1">
                    <mxGeometry x="341.5" y="140" width="110" height="110" as="geometry"/>
                </mxCell>
                <mxCell id="j1fYSSPI4bcBSwv4YlWg-3" value="Warga" style="rounded=1;whiteSpace=wrap;html=1;fontSize=13;" parent="1" vertex="1">
                    <mxGeometry x="310" y="390" width="173" height="60" as="geometry"/>
                </mxCell>
                <mxCell id="j1fYSSPI4bcBSwv4YlWg-10" value="Aspirasi" style="endArrow=classic;html=1;strokeWidth=2;fontSize=13;entryX=0;entryY=0.5;entryDx=0;entryDy=0;exitX=0;exitY=0.5;exitDx=0;exitDy=0;" parent="1" source="j1fYSSPI4bcBSwv4YlWg-3" target="4vlzXtDcmgQsKmsYzqEM-1" edge="1">
                    <mxGeometry width="50" height="50" relative="1" as="geometry">
                        <mxPoint x="280" y="330" as="sourcePoint"/>
                        <mxPoint x="250" y="200" as="targetPoint"/>
                        <Array as="points">
                            <mxPoint x="270" y="420"/>
                            <mxPoint x="270" y="195"/>
                        </Array>
                    </mxGeometry>
                </mxCell>
                <mxCell id="j1fYSSPI4bcBSwv4YlWg-13" value="Login /&lt;br&gt;Registrasi" style="endArrow=classic;startArrow=classic;html=1;strokeWidth=2;fontSize=13;exitX=0.5;exitY=0;exitDx=0;exitDy=0;entryX=0.5;entryY=1;entryDx=0;entryDy=0;" parent="1" source="j1fYSSPI4bcBSwv4YlWg-3" target="4vlzXtDcmgQsKmsYzqEM-1" edge="1">
                    <mxGeometry x="-0.3103" width="50" height="50" relative="1" as="geometry">
                        <mxPoint x="160" y="300" as="sourcePoint"/>
                        <mxPoint x="210" y="250" as="targetPoint"/>
                        <mxPoint as="offset"/>
                    </mxGeometry>
                </mxCell>
                <mxCell id="j1fYSSPI4bcBSwv4YlWg-14" value="Akses&lt;br&gt;Informasi" style="endArrow=classic;html=1;strokeWidth=2;fontSize=13;exitX=1;exitY=0.5;exitDx=0;exitDy=0;entryX=1;entryY=0.5;entryDx=0;entryDy=0;" parent="1" source="4vlzXtDcmgQsKmsYzqEM-1" target="j1fYSSPI4bcBSwv4YlWg-3" edge="1">
                    <mxGeometry width="50" height="50" relative="1" as="geometry">
                        <mxPoint x="320" y="300" as="sourcePoint"/>
                        <mxPoint x="370" y="250" as="targetPoint"/>
                        <Array as="points">
                            <mxPoint x="530" y="195"/>
                            <mxPoint x="530" y="420"/>
                        </Array>
                    </mxGeometry>
                </mxCell>
                <mxCell id="9cIbFi9JlnH_WPQ7QBNv-1" value="KTM&lt;br&gt;Kades" style="ellipse;whiteSpace=wrap;html=1;aspect=fixed;strokeWidth=2;" parent="1" vertex="1">
                    <mxGeometry x="841.5" y="55" width="110" height="110" as="geometry"/>
                </mxCell>
                <mxCell id="9cIbFi9JlnH_WPQ7QBNv-2" value="Kepala Desa" style="rounded=1;whiteSpace=wrap;html=1;fontSize=13;" parent="1" vertex="1">
                    <mxGeometry x="810" y="305" width="173" height="60" as="geometry"/>
                </mxCell>
                <mxCell id="9cIbFi9JlnH_WPQ7QBNv-3" value="Tanda&lt;br&gt;Tangan" style="endArrow=classic;html=1;strokeWidth=2;fontSize=13;entryX=0;entryY=0.5;entryDx=0;entryDy=0;exitX=0;exitY=0.5;exitDx=0;exitDy=0;" parent="1" source="9cIbFi9JlnH_WPQ7QBNv-2" target="9cIbFi9JlnH_WPQ7QBNv-1" edge="1">
                    <mxGeometry width="50" height="50" relative="1" as="geometry">
                        <mxPoint x="780" y="315" as="sourcePoint"/>
                        <mxPoint x="750" y="185" as="targetPoint"/>
                        <Array as="points">
                            <mxPoint x="770" y="335"/>
                            <mxPoint x="770" y="110"/>
                        </Array>
                    </mxGeometry>
                </mxCell>
                <mxCell id="9cIbFi9JlnH_WPQ7QBNv-4" value="Login" style="endArrow=classic;startArrow=classic;html=1;strokeWidth=2;fontSize=13;exitX=0.5;exitY=0;exitDx=0;exitDy=0;entryX=0.5;entryY=1;entryDx=0;entryDy=0;" parent="1" source="9cIbFi9JlnH_WPQ7QBNv-2" target="9cIbFi9JlnH_WPQ7QBNv-1" edge="1">
                    <mxGeometry width="50" height="50" relative="1" as="geometry">
                        <mxPoint x="660" y="285" as="sourcePoint"/>
                        <mxPoint x="710" y="235" as="targetPoint"/>
                    </mxGeometry>
                </mxCell>
                <mxCell id="9cIbFi9JlnH_WPQ7QBNv-5" value="Laporan&lt;br&gt;Aspirasi" style="endArrow=classic;html=1;strokeWidth=2;fontSize=13;exitX=1;exitY=0.5;exitDx=0;exitDy=0;entryX=1;entryY=0.5;entryDx=0;entryDy=0;" parent="1" source="9cIbFi9JlnH_WPQ7QBNv-1" target="9cIbFi9JlnH_WPQ7QBNv-2" edge="1">
                    <mxGeometry width="50" height="50" relative="1" as="geometry">
                        <mxPoint x="820" y="285" as="sourcePoint"/>
                        <mxPoint x="870" y="235" as="targetPoint"/>
                        <Array as="points">
                            <mxPoint x="1030" y="110"/>
                            <mxPoint x="1030" y="335"/>
                        </Array>
                    </mxGeometry>
                </mxCell>
                <mxCell id="9cIbFi9JlnH_WPQ7QBNv-6" value="KTM&lt;br&gt;Admin" style="ellipse;whiteSpace=wrap;html=1;aspect=fixed;strokeWidth=2;" parent="1" vertex="1">
                    <mxGeometry x="651.5" y="580" width="110" height="110" as="geometry"/>
                </mxCell>
                <mxCell id="9cIbFi9JlnH_WPQ7QBNv-7" value="Admin Desa" style="rounded=1;whiteSpace=wrap;html=1;fontSize=13;" parent="1" vertex="1">
                    <mxGeometry x="623" y="831.04" width="167" height="57.92" as="geometry"/>
                </mxCell>
                <mxCell id="9cIbFi9JlnH_WPQ7QBNv-8" value="Input data" style="endArrow=classic;html=1;strokeWidth=2;fontSize=13;entryX=0;entryY=0.5;entryDx=0;entryDy=0;exitX=0;exitY=0.5;exitDx=0;exitDy=0;" parent="1" source="9cIbFi9JlnH_WPQ7QBNv-7" target="9cIbFi9JlnH_WPQ7QBNv-6" edge="1">
                    <mxGeometry width="50" height="50" relative="1" as="geometry">
                        <mxPoint x="590" y="840" as="sourcePoint"/>
                        <mxPoint x="560" y="710" as="targetPoint"/>
                        <Array as="points">
                            <mxPoint x="580" y="860"/>
                            <mxPoint x="580" y="635"/>
                        </Array>
                    </mxGeometry>
                </mxCell>
                <mxCell id="9cIbFi9JlnH_WPQ7QBNv-9" value="Login" style="endArrow=classic;startArrow=classic;html=1;strokeWidth=2;fontSize=13;exitX=0.25;exitY=0;exitDx=0;exitDy=0;entryX=0;entryY=1;entryDx=0;entryDy=0;" parent="1" source="9cIbFi9JlnH_WPQ7QBNv-7" target="9cIbFi9JlnH_WPQ7QBNv-6" edge="1">
                    <mxGeometry width="50" height="50" relative="1" as="geometry">
                        <mxPoint x="470" y="810" as="sourcePoint"/>
                        <mxPoint x="520" y="760" as="targetPoint"/>
                    </mxGeometry>
                </mxCell>
                <mxCell id="9cIbFi9JlnH_WPQ7QBNv-11" value="Aspirasi dan&lt;br&gt;Feedback" style="endArrow=classic;startArrow=classic;html=1;strokeWidth=2;fontSize=13;entryX=1;entryY=0.5;entryDx=0;entryDy=0;exitX=1;exitY=0.5;exitDx=0;exitDy=0;" parent="1" source="9cIbFi9JlnH_WPQ7QBNv-7" target="9cIbFi9JlnH_WPQ7QBNv-6" edge="1">
                    <mxGeometry width="50" height="50" relative="1" as="geometry">
                        <mxPoint x="890" y="806" as="sourcePoint"/>
                        <mxPoint x="940" y="756" as="targetPoint"/>
                        <Array as="points">
                            <mxPoint x="860" y="860"/>
                            <mxPoint x="860" y="635"/>
                        </Array>
                    </mxGeometry>
                </mxCell>
                <mxCell id="9cIbFi9JlnH_WPQ7QBNv-12" value="Validasi Data" style="endArrow=classic;startArrow=classic;html=1;strokeWidth=2;fontSize=13;entryX=1;entryY=1;entryDx=0;entryDy=0;exitX=0.75;exitY=0;exitDx=0;exitDy=0;" parent="1" source="9cIbFi9JlnH_WPQ7QBNv-7" target="9cIbFi9JlnH_WPQ7QBNv-6" edge="1">
                    <mxGeometry width="50" height="50" relative="1" as="geometry">
                        <mxPoint x="760" y="816" as="sourcePoint"/>
                        <mxPoint x="810" y="766" as="targetPoint"/>
                    </mxGeometry>
                </mxCell>
                <mxCell id="9cIbFi9JlnH_WPQ7QBNv-13" value="Pengarsipan&lt;br&gt;Dokumen" style="endArrow=classic;startArrow=classic;html=1;strokeWidth=2;fontSize=13;exitX=0;exitY=0.75;exitDx=0;exitDy=0;entryX=0;entryY=0;entryDx=0;entryDy=0;" parent="1" source="9cIbFi9JlnH_WPQ7QBNv-7" target="9cIbFi9JlnH_WPQ7QBNv-6" edge="1">
                    <mxGeometry x="0.3983" width="50" height="50" relative="1" as="geometry">
                        <mxPoint x="750" y="766" as="sourcePoint"/>
                        <mxPoint x="800" y="716" as="targetPoint"/>
                        <Array as="points">
                            <mxPoint x="540" y="876"/>
                            <mxPoint x="540" y="596"/>
                        </Array>
                        <mxPoint as="offset"/>
                    </mxGeometry>
                </mxCell>
            </root>
        </mxGraphModel>
    </diagram>
    <diagram id="1FR1ADQeKjdaqAMyPFB6" name="Level 0">
        <mxGraphModel dx="1284" dy="478" grid="1" gridSize="10" guides="1" tooltips="1" connect="1" arrows="1" fold="1" page="1" pageScale="1" pageWidth="583" pageHeight="827" math="0" shadow="0">
            <root>
                <mxCell id="0"/>
                <mxCell id="1" parent="0"/>
                <mxCell id="2" value="KTM" style="ellipse;whiteSpace=wrap;html=1;aspect=fixed;strokeWidth=2;" parent="1" vertex="1">
                    <mxGeometry x="230" y="215" width="110" height="110" as="geometry"/>
                </mxCell>
                <mxCell id="8" value="Pengguna" style="rounded=1;whiteSpace=wrap;html=1;strokeWidth=2;" parent="1" vertex="1">
                    <mxGeometry x="20" y="190" width="116" height="160" as="geometry"/>
                </mxCell>
                <mxCell id="9" value="" style="endArrow=classic;html=1;strokeWidth=2;entryX=0;entryY=0.5;entryDx=0;entryDy=0;exitX=1;exitY=0.5;exitDx=0;exitDy=0;" parent="1" source="8" target="2" edge="1">
                    <mxGeometry width="50" height="50" relative="1" as="geometry">
                        <mxPoint x="450" y="320.0000000000001" as="sourcePoint"/>
                        <mxPoint x="333.8908729652601" y="318.8908729652601" as="targetPoint"/>
                    </mxGeometry>
                </mxCell>
                <mxCell id="10" value="" style="endArrow=classic;html=1;strokeWidth=2;entryX=0;entryY=0;entryDx=0;entryDy=0;exitX=1;exitY=0.25;exitDx=0;exitDy=0;" parent="1" source="8" target="2" edge="1">
                    <mxGeometry width="50" height="50" relative="1" as="geometry">
                        <mxPoint x="136" y="280" as="sourcePoint"/>
                        <mxPoint x="240" y="280" as="targetPoint"/>
                    </mxGeometry>
                </mxCell>
                <mxCell id="11" value="" style="endArrow=classic;html=1;strokeWidth=2;entryX=1;entryY=0.75;entryDx=0;entryDy=0;exitX=0;exitY=1;exitDx=0;exitDy=0;" parent="1" source="2" target="8" edge="1">
                    <mxGeometry width="50" height="50" relative="1" as="geometry">
                        <mxPoint x="136" y="280" as="sourcePoint"/>
                        <mxPoint x="240" y="280" as="targetPoint"/>
                    </mxGeometry>
                </mxCell>
                <mxCell id="12" value="Login" style="text;html=1;strokeColor=none;fillColor=none;align=center;verticalAlign=middle;whiteSpace=wrap;rounded=0;strokeWidth=2;" parent="1" vertex="1">
                    <mxGeometry x="149" y="243" width="60" height="30" as="geometry"/>
                </mxCell>
                <mxCell id="15" value="Menyediakan Data dan Fitur" style="text;html=1;strokeColor=none;fillColor=none;align=center;verticalAlign=middle;whiteSpace=wrap;rounded=0;strokeWidth=2;" parent="1" vertex="1">
                    <mxGeometry x="149" y="310" width="83" height="30" as="geometry"/>
                </mxCell>
                <mxCell id="17" value="Registrasi" style="text;html=1;strokeColor=none;fillColor=none;align=center;verticalAlign=middle;whiteSpace=wrap;rounded=0;strokeWidth=2;" parent="1" vertex="1">
                    <mxGeometry x="137.5" y="200" width="83" height="30" as="geometry"/>
                </mxCell>
            </root>
        </mxGraphModel>
    </diagram>
    <diagram id="TJ_CH3-XATmNzkG36_Kq" name="Level 2">
        <mxGraphModel dx="1284" dy="478" grid="1" gridSize="10" guides="1" tooltips="1" connect="1" arrows="1" fold="1" page="1" pageScale="1" pageWidth="583" pageHeight="827" math="0" shadow="0">
            <root>
                <mxCell id="0"/>
                <mxCell id="1" parent="0"/>
                <mxCell id="l8p7RF-hZzHtbNQHDTsK-1" value="KTM&lt;br&gt;Warga" style="ellipse;whiteSpace=wrap;html=1;aspect=fixed;strokeWidth=2;" parent="1" vertex="1">
                    <mxGeometry x="201.5" y="150" width="110" height="110" as="geometry"/>
                </mxCell>
                <mxCell id="l8p7RF-hZzHtbNQHDTsK-2" value="Warga" style="rounded=1;whiteSpace=wrap;html=1;fontSize=13;" parent="1" vertex="1">
                    <mxGeometry x="170" y="550" width="173" height="60" as="geometry"/>
                </mxCell>
                <mxCell id="l8p7RF-hZzHtbNQHDTsK-3" value="Aspirasi" style="endArrow=classic;html=1;strokeWidth=2;fontSize=13;entryX=0;entryY=0.5;entryDx=0;entryDy=0;exitX=0;exitY=0.5;exitDx=0;exitDy=0;" parent="1" source="l8p7RF-hZzHtbNQHDTsK-2" target="l8p7RF-hZzHtbNQHDTsK-1" edge="1">
                    <mxGeometry width="50" height="50" relative="1" as="geometry">
                        <mxPoint x="140" y="410" as="sourcePoint"/>
                        <mxPoint x="110" y="280" as="targetPoint"/>
                        <Array as="points">
                            <mxPoint x="130" y="580"/>
                            <mxPoint x="130" y="205"/>
                        </Array>
                    </mxGeometry>
                </mxCell>
                <mxCell id="l8p7RF-hZzHtbNQHDTsK-4" value="Login /&lt;br&gt;Registrasi" style="endArrow=classic;startArrow=classic;html=1;strokeWidth=2;fontSize=13;exitX=0.5;exitY=0;exitDx=0;exitDy=0;entryX=0.5;entryY=1;entryDx=0;entryDy=0;" parent="1" source="l8p7RF-hZzHtbNQHDTsK-2" target="l8p7RF-hZzHtbNQHDTsK-1" edge="1">
                    <mxGeometry x="-0.3103" width="50" height="50" relative="1" as="geometry">
                        <mxPoint x="20" y="380" as="sourcePoint"/>
                        <mxPoint x="70" y="330" as="targetPoint"/>
                        <mxPoint as="offset"/>
                    </mxGeometry>
                </mxCell>
                <mxCell id="l8p7RF-hZzHtbNQHDTsK-5" value="Akses&lt;br&gt;Informasi" style="endArrow=classic;html=1;strokeWidth=2;fontSize=13;exitX=1;exitY=0.5;exitDx=0;exitDy=0;entryX=1;entryY=0.5;entryDx=0;entryDy=0;" parent="1" source="l8p7RF-hZzHtbNQHDTsK-1" target="l8p7RF-hZzHtbNQHDTsK-2" edge="1">
                    <mxGeometry x="0.0729" width="50" height="50" relative="1" as="geometry">
                        <mxPoint x="180" y="380" as="sourcePoint"/>
                        <mxPoint x="230" y="330" as="targetPoint"/>
                        <Array as="points">
                            <mxPoint x="390" y="205"/>
                            <mxPoint x="390" y="580"/>
                        </Array>
                        <mxPoint as="offset"/>
                    </mxGeometry>
                </mxCell>
                <mxCell id="l8p7RF-hZzHtbNQHDTsK-6" value="KTM&lt;br&gt;Kades" style="ellipse;whiteSpace=wrap;html=1;aspect=fixed;strokeWidth=2;" parent="1" vertex="1">
                    <mxGeometry x="818" y="155" width="110" height="110" as="geometry"/>
                </mxCell>
                <mxCell id="l8p7RF-hZzHtbNQHDTsK-7" value="Kepala Desa" style="rounded=1;whiteSpace=wrap;html=1;fontSize=13;" parent="1" vertex="1">
                    <mxGeometry x="790" y="560" width="173" height="60" as="geometry"/>
                </mxCell>
                <mxCell id="l8p7RF-hZzHtbNQHDTsK-8" value="Tanda&lt;br&gt;Tangan" style="endArrow=classic;html=1;strokeWidth=2;fontSize=13;entryX=0;entryY=0.5;entryDx=0;entryDy=0;exitX=0;exitY=0.5;exitDx=0;exitDy=0;" parent="1" source="l8p7RF-hZzHtbNQHDTsK-7" target="l8p7RF-hZzHtbNQHDTsK-6" edge="1">
                    <mxGeometry x="-0.2623" width="50" height="50" relative="1" as="geometry">
                        <mxPoint x="760" y="570" as="sourcePoint"/>
                        <mxPoint x="730" y="440" as="targetPoint"/>
                        <Array as="points">
                            <mxPoint x="750" y="590"/>
                            <mxPoint x="750" y="365"/>
                            <mxPoint x="750" y="210"/>
                        </Array>
                        <mxPoint as="offset"/>
                    </mxGeometry>
                </mxCell>
                <mxCell id="l8p7RF-hZzHtbNQHDTsK-9" value="Login" style="endArrow=classic;startArrow=classic;html=1;strokeWidth=2;fontSize=13;exitX=0.5;exitY=0;exitDx=0;exitDy=0;entryX=0.5;entryY=1;entryDx=0;entryDy=0;" parent="1" source="l8p7RF-hZzHtbNQHDTsK-7" target="l8p7RF-hZzHtbNQHDTsK-6" edge="1">
                    <mxGeometry x="-0.6613" y="-4" width="50" height="50" relative="1" as="geometry">
                        <mxPoint x="640" y="540" as="sourcePoint"/>
                        <mxPoint x="690" y="490" as="targetPoint"/>
                        <mxPoint as="offset"/>
                    </mxGeometry>
                </mxCell>
                <mxCell id="l8p7RF-hZzHtbNQHDTsK-10" value="Laporan&lt;br&gt;Aspirasi" style="endArrow=classic;html=1;strokeWidth=2;fontSize=13;exitX=1;exitY=0.5;exitDx=0;exitDy=0;entryX=1;entryY=0.5;entryDx=0;entryDy=0;" parent="1" source="l8p7RF-hZzHtbNQHDTsK-6" target="l8p7RF-hZzHtbNQHDTsK-7" edge="1">
                    <mxGeometry x="-0.0013" width="50" height="50" relative="1" as="geometry">
                        <mxPoint x="800" y="540" as="sourcePoint"/>
                        <mxPoint x="850" y="490" as="targetPoint"/>
                        <Array as="points">
                            <mxPoint x="1010" y="210"/>
                            <mxPoint x="1010" y="365"/>
                            <mxPoint x="1010" y="590"/>
                        </Array>
                        <mxPoint as="offset"/>
                    </mxGeometry>
                </mxCell>
                <mxCell id="l8p7RF-hZzHtbNQHDTsK-11" value="KTM&lt;br&gt;Admin" style="ellipse;whiteSpace=wrap;html=1;aspect=fixed;strokeWidth=2;" parent="1" vertex="1">
                    <mxGeometry x="191.5" y="860" width="110" height="110" as="geometry"/>
                </mxCell>
                <mxCell id="l8p7RF-hZzHtbNQHDTsK-12" value="Admin Desa" style="rounded=1;whiteSpace=wrap;html=1;fontSize=13;" parent="1" vertex="1">
                    <mxGeometry x="163" y="1111.04" width="167" height="57.92" as="geometry"/>
                </mxCell>
                <mxCell id="l8p7RF-hZzHtbNQHDTsK-13" value="Input data" style="endArrow=classic;html=1;strokeWidth=2;fontSize=13;entryX=0;entryY=0.5;entryDx=0;entryDy=0;exitX=0;exitY=0.5;exitDx=0;exitDy=0;" parent="1" source="l8p7RF-hZzHtbNQHDTsK-12" target="l8p7RF-hZzHtbNQHDTsK-11" edge="1">
                    <mxGeometry width="50" height="50" relative="1" as="geometry">
                        <mxPoint x="130" y="1120" as="sourcePoint"/>
                        <mxPoint x="100" y="990" as="targetPoint"/>
                        <Array as="points">
                            <mxPoint x="120" y="1140"/>
                            <mxPoint x="120" y="915"/>
                        </Array>
                    </mxGeometry>
                </mxCell>
                <mxCell id="l8p7RF-hZzHtbNQHDTsK-14" value="Login" style="endArrow=classic;startArrow=classic;html=1;strokeWidth=2;fontSize=13;exitX=0.25;exitY=0;exitDx=0;exitDy=0;entryX=0;entryY=1;entryDx=0;entryDy=0;" parent="1" source="l8p7RF-hZzHtbNQHDTsK-12" target="l8p7RF-hZzHtbNQHDTsK-11" edge="1">
                    <mxGeometry width="50" height="50" relative="1" as="geometry">
                        <mxPoint x="10" y="1090" as="sourcePoint"/>
                        <mxPoint x="60" y="1040" as="targetPoint"/>
                    </mxGeometry>
                </mxCell>
                <mxCell id="l8p7RF-hZzHtbNQHDTsK-15" value="Aspirasi dan&lt;br&gt;Feedback" style="endArrow=classic;startArrow=classic;html=1;strokeWidth=2;fontSize=13;entryX=1;entryY=0.5;entryDx=0;entryDy=0;exitX=1;exitY=0.5;exitDx=0;exitDy=0;" parent="1" source="l8p7RF-hZzHtbNQHDTsK-12" target="l8p7RF-hZzHtbNQHDTsK-11" edge="1">
                    <mxGeometry width="50" height="50" relative="1" as="geometry">
                        <mxPoint x="430" y="1086" as="sourcePoint"/>
                        <mxPoint x="480" y="1036" as="targetPoint"/>
                        <Array as="points">
                            <mxPoint x="400" y="1140"/>
                            <mxPoint x="400" y="915"/>
                        </Array>
                    </mxGeometry>
                </mxCell>
                <mxCell id="l8p7RF-hZzHtbNQHDTsK-16" value="Validasi Data" style="endArrow=classic;startArrow=classic;html=1;strokeWidth=2;fontSize=13;entryX=1;entryY=1;entryDx=0;entryDy=0;exitX=0.75;exitY=0;exitDx=0;exitDy=0;" parent="1" source="l8p7RF-hZzHtbNQHDTsK-12" target="l8p7RF-hZzHtbNQHDTsK-11" edge="1">
                    <mxGeometry width="50" height="50" relative="1" as="geometry">
                        <mxPoint x="300" y="1096" as="sourcePoint"/>
                        <mxPoint x="350" y="1046" as="targetPoint"/>
                    </mxGeometry>
                </mxCell>
                <mxCell id="l8p7RF-hZzHtbNQHDTsK-17" value="Pengarsipan&lt;br&gt;Dokumen" style="endArrow=classic;startArrow=classic;html=1;strokeWidth=2;fontSize=13;exitX=0;exitY=0.75;exitDx=0;exitDy=0;entryX=0;entryY=0;entryDx=0;entryDy=0;" parent="1" source="l8p7RF-hZzHtbNQHDTsK-12" target="l8p7RF-hZzHtbNQHDTsK-11" edge="1">
                    <mxGeometry x="0.3983" width="50" height="50" relative="1" as="geometry">
                        <mxPoint x="290" y="1046" as="sourcePoint"/>
                        <mxPoint x="340" y="996" as="targetPoint"/>
                        <Array as="points">
                            <mxPoint x="80" y="1156"/>
                            <mxPoint x="80" y="876"/>
                        </Array>
                        <mxPoint as="offset"/>
                    </mxGeometry>
                </mxCell>
                <mxCell id="l8p7RF-hZzHtbNQHDTsK-18" value="user" style="shape=partialRectangle;whiteSpace=wrap;html=1;left=0;right=0;fontSize=13;" parent="1" vertex="1">
                    <mxGeometry x="196.5" y="355" width="120" height="60" as="geometry"/>
                </mxCell>
                <mxCell id="l8p7RF-hZzHtbNQHDTsK-19" value="informasi" style="shape=partialRectangle;whiteSpace=wrap;html=1;left=0;right=0;fontSize=13;" parent="1" vertex="1">
                    <mxGeometry x="333" y="275" width="120" height="60" as="geometry"/>
                </mxCell>
                <mxCell id="nnnYQiiLHx9Sf5dWLwT4-1" value="aspirasi" style="shape=partialRectangle;whiteSpace=wrap;html=1;left=0;right=0;fontSize=13;" parent="1" vertex="1">
                    <mxGeometry x="196.5" y="45" width="120" height="60" as="geometry"/>
                </mxCell>
                <mxCell id="nnnYQiiLHx9Sf5dWLwT4-2" value="" style="endArrow=classic;startArrow=classic;html=1;strokeWidth=2;fontSize=13;entryX=0.5;entryY=1;entryDx=0;entryDy=0;exitX=0.5;exitY=0;exitDx=0;exitDy=0;" parent="1" source="l8p7RF-hZzHtbNQHDTsK-1" target="nnnYQiiLHx9Sf5dWLwT4-1" edge="1">
                    <mxGeometry width="50" height="50" relative="1" as="geometry">
                        <mxPoint x="290" y="255" as="sourcePoint"/>
                        <mxPoint x="340" y="205" as="targetPoint"/>
                    </mxGeometry>
                </mxCell>
                <mxCell id="nnnYQiiLHx9Sf5dWLwT4-3" value="Surat Pengajuan" style="shape=partialRectangle;whiteSpace=wrap;html=1;left=0;right=0;fontSize=13;" parent="1" vertex="1">
                    <mxGeometry x="690" y="270" width="120" height="60" as="geometry"/>
                </mxCell>
                <mxCell id="nnnYQiiLHx9Sf5dWLwT4-5" value="Pegawai" style="shape=partialRectangle;whiteSpace=wrap;html=1;left=0;right=0;fontSize=13;" parent="1" vertex="1">
                    <mxGeometry x="813" y="380" width="120" height="60" as="geometry"/>
                </mxCell>
                <mxCell id="nnnYQiiLHx9Sf5dWLwT4-6" value="aspirasi" style="shape=partialRectangle;whiteSpace=wrap;html=1;left=0;right=0;fontSize=13;" parent="1" vertex="1">
                    <mxGeometry x="812" y="40" width="120" height="60" as="geometry"/>
                </mxCell>
                <mxCell id="nnnYQiiLHx9Sf5dWLwT4-7" value="" style="endArrow=classic;startArrow=classic;html=1;strokeWidth=2;fontSize=13;entryX=0.5;entryY=1;entryDx=0;entryDy=0;exitX=0.5;exitY=0;exitDx=0;exitDy=0;" parent="1" target="nnnYQiiLHx9Sf5dWLwT4-6" edge="1">
                    <mxGeometry width="50" height="50" relative="1" as="geometry">
                        <mxPoint x="872.5799999999999" y="154.9999999999999" as="sourcePoint"/>
                        <mxPoint x="872.5799999999999" y="109.99999999999989" as="targetPoint"/>
                    </mxGeometry>
                </mxCell>
                <mxCell id="nnnYQiiLHx9Sf5dWLwT4-8" value="Arsip Dukumen" style="shape=partialRectangle;whiteSpace=wrap;html=1;left=0;right=0;fontSize=13;" parent="1" vertex="1">
                    <mxGeometry x="186.5" y="720" width="120" height="60" as="geometry"/>
                </mxCell>
                <mxCell id="nnnYQiiLHx9Sf5dWLwT4-9" value="" style="endArrow=classic;startArrow=classic;html=1;strokeWidth=2;fontSize=13;entryX=0.5;entryY=1;entryDx=0;entryDy=0;exitX=0.5;exitY=0;exitDx=0;exitDy=0;" parent="1" target="nnnYQiiLHx9Sf5dWLwT4-8" edge="1">
                    <mxGeometry width="50" height="50" relative="1" as="geometry">
                        <mxPoint x="246" y="860" as="sourcePoint"/>
                        <mxPoint x="246" y="815" as="targetPoint"/>
                    </mxGeometry>
                </mxCell>
                <mxCell id="nnnYQiiLHx9Sf5dWLwT4-10" value="Data Warga" style="shape=partialRectangle;whiteSpace=wrap;html=1;left=0;right=0;fontSize=13;" parent="1" vertex="1">
                    <mxGeometry x="440" y="846" width="120" height="60" as="geometry"/>
                </mxCell>
                <mxCell id="nnnYQiiLHx9Sf5dWLwT4-11" value="" style="endArrow=classic;startArrow=classic;html=1;strokeWidth=2;fontSize=13;entryX=0;entryY=0.5;entryDx=0;entryDy=0;exitX=1;exitY=0;exitDx=0;exitDy=0;" parent="1" source="l8p7RF-hZzHtbNQHDTsK-11" target="nnnYQiiLHx9Sf5dWLwT4-10" edge="1">
                    <mxGeometry width="50" height="50" relative="1" as="geometry">
                        <mxPoint x="256" y="870" as="sourcePoint"/>
                        <mxPoint x="256.5" y="790" as="targetPoint"/>
                    </mxGeometry>
                </mxCell>
            </root>
        </mxGraphModel>
    </diagram>
</mxfile>